<svg width="150" height="150" viewBox="0 0 150 150" fill="none" xmlns="http://www.w3.org/2000/svg">
<g clip-path="url(#clip0_3176_806)">
<rect width="150" height="150" fill="#201F1F"/>
<path d="M51.4688 106.938C48 106.938 44.8281 106.062 41.9531 104.312C39.1094 102.562 36.8438 100.219 35.1562 97.2812C33.5 94.3125 32.6719 91.0156 32.6719 87.3906L32.7656 57.4375C32.7656 53.875 33.5781 50.6562 35.2031 47.7812C36.8281 44.875 39.0625 42.5469 41.9062 40.7969C44.7812 39.0156 47.9688 38.125 51.4688 38.125C55.0312 38.125 58.2031 38.9844 60.9844 40.7031C63.7969 42.4219 66.0312 44.75 67.6875 47.6875C69.375 50.5938 70.2188 53.8438 70.2188 57.4375V61.8438C70.2188 62.0938 70.0938 62.2188 69.8438 62.2188H59.0625C58.8125 62.2188 58.6875 62.0938 58.6875 61.8438V57.4375C58.6875 55.3125 58 53.4844 56.625 51.9531C55.25 50.4219 53.5312 49.6562 51.4688 49.6562C49.1875 49.6562 47.4375 50.4375 46.2188 52C45 53.5625 44.3906 55.375 44.3906 57.4375V87.3906C44.3906 89.7344 45.0781 91.6562 46.4531 93.1562C47.8281 94.625 49.5 95.3594 51.4688 95.3594C53.5312 95.3594 55.25 94.5469 56.625 92.9219C58 91.2656 58.6875 89.4219 58.6875 87.3906V82.9375C58.6875 82.6875 58.8125 82.5625 59.0625 82.5625H69.9375C70.1875 82.5625 70.3125 82.6875 70.3125 82.9375V87.3906C70.3125 90.9844 69.4688 94.2656 67.7812 97.2344C66.0625 100.172 63.7969 102.531 60.9844 104.312C58.1719 106.062 55 106.938 51.4688 106.938ZM104.023 106H92.3981C92.1169 106 91.9606 105.844 91.9294 105.531L78.6637 39.5781C78.6012 39.3281 78.7262 39.2031 79.0387 39.2031H89.9137C90.1637 39.2031 90.32 39.3281 90.3825 39.5781L98.2575 83.5469L105.945 39.5781C106.007 39.3281 106.164 39.2031 106.414 39.2031H117.148C117.492 39.2031 117.617 39.3281 117.523 39.5781L104.492 105.531C104.461 105.844 104.304 106 104.023 106Z" fill="white"/>
</g>
<defs>
<clipPath id="clip0_3176_806">
<rect width="150" height="150" fill="white"/>
</clipPath>
</defs>
</svg>
